#!OML:ASF H:\GeneralSubjects\Female5\Project 1\Capture day 1\Session 1\Female5.ASF
:FULLY-SPECIFIED
:DEGREES
204
root -5.30733 15.6502 1.66577 311.348 -96.6655 -299.255
lowerback 16.952 1.21916 9.5835
upperback -8.48471 4.24096 1.49468
thorax -19.1637 0.713009 -4.98539
lowerneck -16.5316 -0.371188 -2.03795
upperneck 36.6015 0.376869 -4.00719
head 15.7345 -1.15367 -1.41944
rclavicle -1.3977e-014 -7.15625e-015
rhumerus -58.8083 13.8015 -49.8329
rradius 27.8072
rwrist -19.8683
rhand -35.8002 -30.3003
rfingers 7.12502
rthumb -8.917 -60.0919
lclavicle -1.3977e-014 -7.15625e-015
lhumerus -65.7636 23.779 24.645
lradius 82.6598
lwrist 3.71693
lhand -47.6855 54.574
lfingers 7.12502
lthumb -20.3662 83.5261
rfemur -19.2616 5.24529 32.5098
rtibia 25.7406
rfoot -26.8223 -13.8652
rtoes -19.6587
lfemur -61.1492 5.54829 -24.1255
ltibia 68.1736
lfoot 696.45 6.13322
ltoes -57.1998
205
root -5.48369 15.4802 1.65529 317.867 -98.4705 -304.932
lowerback 17.3554 1.67123 9.80811
upperback -8.46113 5.04648 2.03079
thorax -19.3163 1.07088 -4.74383
lowerneck -17.3703 -0.456353 -2.17705
upperneck 35.7123 0.494548 -4.20502
head 15.5028 -1.10651 -1.43015
rclavicle 1.60146e-014 3.45885e-014
rhumerus -57.2553 14.1027 -57.9713
rradius 30.0882
rwrist -20.6686
rhand -35.1262 -30.0347
rfingers 7.12502
rthumb -8.26657 -59.853
lclavicle 1.60146e-014 3.45885e-014
lhumerus -65.1258 23.1703 31.3337
lradius 74.3276
lwrist 2.41468
lhand -42.883 51.2254
lfingers 7.12502
lthumb -15.7457 80.6049
rfemur -21.6554 4.89625 33.7863
rtibia 29.9689
rfoot -27.9196 -11.5863
rtoes -21.4487
lfemur -59.2664 6.67316 -22.9347
ltibia 58.3865
lfoot 699.841 8.24689
ltoes -57.0235
206
root -5.69013 15.3197 1.63421 323.578 -99.6112 -310.489
lowerback 17.7371 2.01987 9.12925
upperback -8.33004 5.44241 2.36681
thorax -19.422 1.3578 -4.11589
lowerneck -17.6703 -0.462707 -2.19463
upperneck 34.9935 0.538478 -4.17136
head 15.2269 -1.05235 -1.37905
rclavicle -1.9133e-015 1.15295e-014
rhumerus -55.1973 14.8141 -65.3007
rradius 32.3175
rwrist -20.0601
rhand -34.3455 -29.5896
rfingers 7.12502
rthumb -7.51302 -59.4361
lclavicle -1.9133e-015 1.15295e-014
lhumerus -63.1114 21.6321 38.698
lradius 65.8921
lwrist -0.764188
lhand -38.3509 45.8462
lfingers 7.12502
lthumb -11.3777 75.5175
rfemur -22.2484 4.76472 34.2703
rtibia 32.5652
rfoot -29.2402 -10.2527
rtoes -23.2568
lfemur -56.0014 7.46646 -22.7084
ltibia 49.9804
lfoot 702.62 9.37316
ltoes -55.2038
207
root -5.9223 15.1627 1.60654 327.938 -100.176 -315.238
lowerback 18.0322 2.21307 7.92686
upperback -8.16602 5.4525 2.55626
thorax -19.5118 1.53614 -3.24754
lowerneck -17.5528 -0.400427 -2.0278
upperneck 34.5334 0.513639 -3.98396
head 14.9769 -0.994966 -1.31536
rclavicle -1.99779e-014 -3.89618e-014
rhumerus -52.9985 15.714 -71.6377
rradius 34.4026
rwrist -18.8785
rhand -33.6456 -29.1788
rfingers 7.12502
rthumb -6.8375 -59.0483
lclavicle -1.99779e-014 -3.89618e-014
lhumerus -60.5503 19.3008 45.9703
lradius 58.4431
lwrist -5.5627
lhand -34.2883 40.3965
lfingers 7.12502
lthumb -7.45786 70.2451
rfemur -21.7077 4.7358 34.2566
rtibia 34.4007
rfoot -30.9128 -9.58769
rtoes -23.966
lfemur -52.3416 7.70388 -23.1071
ltibia 43.9269
lfoot 704.156 9.37388
ltoes -51.7346
208
root -6.17124 15.0175 1.58241 330.688 -100.329 -318.746
lowerback 18.2927 2.24345 6.63518
upperback -8.00631 5.19271 2.64431
thorax -19.6092 1.60056 -2.35717
lowerneck -17.2233 -0.287511 -1.66052
upperneck 34.3104 0.454847 -3.75845
head 14.7901 -0.932837 -1.28522
rclavicle -9.90196e-015 -3.33958e-014
rhumerus -51.1072 16.8566 -77.1679
rradius 36.5853
rwrist -18.0416
rhand -33.1188 -28.9448
rfingers 7.12502
rthumb -6.32893 -58.8303
lclavicle -9.90196e-015 -3.33958e-014
lhumerus -58.0976 16.7157 52.4486
lradius 52.7065
lwrist -10.7393
lhand -31.14 36.1305
lfingers 7.12502
lthumb -4.41832 66.0644
rfemur -20.7922 4.77983 34.0522
rtibia 36.4438
rfoot -32.7906 -8.83997
rtoes -21.581
lfemur -49.1297 7.29822 -23.6816
ltibia 40.8038
lfoot 704.757 8.32349
ltoes -47.1696
209
root -6.42963 14.8954 1.56801 331.325 -100.191 -320.301
lowerback 18.5087 2.11853 5.6186
upperback -7.86142 4.77552 2.68075
thorax -19.6726 1.55788 -1.61969
lowerneck -16.9214 -0.151469 -1.13356
upperneck 34.2597 0.40032 -3.6042
head 14.6915 -0.866151 -1.31913
rclavicle -2.15433e-014 -5.96354e-014
rhumerus -49.7475 18.2162 -81.923
rradius 38.9869
rwrist -17.7692
rhand -32.5514 -28.6365
rfingers 7.12502
rthumb -5.78111 -58.5377
lclavicle -2.15433e-014 -5.96354e-014
lhumerus -55.9397 14.4952 57.7418
lradius 48.7479
lwrist -14.8201
lhand -28.5367 33.3043
lfingers 7.12502
lthumb -1.90424 63.2755
rfemur -19.953 4.80117 33.9236
rtibia 39.0296
rfoot -34.0798 -8.43668
rtoes -19.1671
lfemur -46.7898 6.29492 -24.0876
ltibia 40.3345
lfoot 704.468 6.52706
ltoes -42.4374
210
root -6.69083 14.8051 1.56482 329.867 -99.8688 -319.732
lowerback 18.613 1.88251 5.03524
upperback -7.76082 4.30498 2.68972
thorax -19.6771 1.43429 -1.12786
lowerneck -16.7155 -0.0300423 -0.613943
upperneck 34.326 0.350143 -3.50199
head 14.6706 -0.810227 -1.37769
rclavicle 2.52457e-014 2.50469e-014
rhumerus -49.0854 19.8067 -85.9353
rradius 41.6252
rwrist -17.8105
rhand -31.7179 -28.3007
rfingers 7.12502
rthumb -4.97631 -58.2223
lclavicle 2.52457e-014 2.50469e-014
lhumerus -54.033 12.7864 61.8606
lradius 46.3556
lwrist -16.6441
lhand -26.5073 31.6481
lfingers 7.12502
lthumb 0.0558123 61.6278
rfemur -19.3417 4.70261 33.9746
rtibia 41.953
rfoot -34.5175 -8.42575
rtoes -17.1676
lfemur -45.3664 5.03882 -24.2846
ltibia 41.6985
lfoot 703.884 4.41763
ltoes -38.4715
211
root -6.94908 14.7506 1.57183 326.864 -99.4529 -317.481
lowerback 18.5521 1.59579 4.84115
upperback -7.71484 3.8523 2.67749
thorax -19.6081 1.26667 -0.876582
lowerneck -16.5702 0.0581838 -0.189078
upperneck 34.4277 0.313704 -3.47381
head 14.6818 -0.7721 -1.44974
rclavicle 1.40411e-015 3.73715e-014
rhumerus -49.0904 21.5516 -89.1719
rradius 44.3128
rwrist -17.5933
rhand -30.5258 -27.6929
rfingers 7.12502
rthumb -3.82519 -57.6383
lclavicle 1.40411e-015 3.73715e-014
lhumerus -52.1449 11.6067 64.9151
lradius 44.9794
lwrist -16.356
lhand -24.9012 30.8929
lfingers 7.12502
lthumb 1.60703 60.8666
rfemur -18.9325 4.35532 34.1472
rtibia 44.8449
rfoot -33.8992 -9.10775
rtoes -16.962
lfemur -44.5482 3.89448 -24.393
ltibia 43.806
lfoot 703.567 2.43281
ltoes -36.4138
212
root -7.2005 14.7293 1.58721 323.115 -98.9893 -314.331
lowerback 18.3199 1.308 4.87067
upperback -7.72192 3.44218 2.64715
thorax -19.4769 1.08695 -0.781829
lowerneck -16.4387 0.112275 0.0850916
upperneck 34.5582 0.299047 -3.50573
head 14.7111 -0.753892 -1.51772
rclavicle -1.83627e-014 -4.92986e-014
rhumerus -49.6335 23.3576 -91.6399
rradius 46.8335
rwrist -16.8798
rhand -29.0381 -26.8891
rfingers 7.12502
rthumb -2.38855 -56.8554
lclavicle -1.83627e-014 -4.92986e-014
lhumerus -50.1474 10.7226 67.2457
lradius 44.242
lwrist -14.6068
lhand -24.2114 30.8264
lfingers 7.12502
lthumb 2.27317 60.794
rfemur -18.6576 3.70166 34.2745
rtibia 47.4161
rfoot -32.1936 -10.3392
rtoes -18.7063
lfemur -43.803 3.05849 -24.5478
ltibia 45.5564
lfoot 703.001 0.567291
ltoes -35.1003
213
root -7.44318 14.7318 1.60605 319.653 -98.5326 -311.284
lowerback 17.8761 1.08342 4.9052
upperback -7.79759 3.10244 2.60512
thorax -19.2915 0.935315 -0.723826
lowerneck -16.2636 0.138078 0.218835
upperneck 34.7135 0.300321 -3.5783
head 14.7432 -0.754625 -1.57589
rclavicle 4.72735e-015 -4.92986e-014
rhumerus -50.5456 25.0804 -93.365
rradius 48.9659
rwrist -15.8297
rhand -27.6666 -25.9413
rfingers 7.12502
rthumb -1.06391 -55.9184
lclavicle 4.72735e-015 -4.92986e-014
lhumerus -48.0153 9.81114 69.1526
lradius 43.9187
lwrist -12.4788
lhand -24.2598 31.2898
lfingers 7.12502
lthumb 2.22642 61.2579
rfemur -18.5652 2.8909 34.266
rtibia 49.5999
rfoot -29.5574 -11.8129
rtoes -21.1149
lfemur -42.7817 2.68126 -24.8625
ltibia 46.5024
lfoot 702.273 -1.46923
ltoes -33.4975
214
root -7.67798 14.7535 1.62782 317.031 -98.086 -309.01
lowerback 17.361 0.931586 4.8451
upperback -7.91917 2.83196 2.55347
thorax -19.1189 0.822717 -0.648061
lowerneck -15.992 0.153712 0.289603
upperneck 34.8557 0.317522 -3.6907
head 14.7478 -0.763247 -1.63579
rclavicle -5.09386e-016 -1.51076e-014
rhumerus -51.6603 26.6017 -94.3923
rradius 50.6081
rwrist -14.7015
rhand -26.5759 -24.9975
rfingers 7.12502
rthumb -0.0104817 -54.9772
lclavicle -5.09386e-016 -1.51076e-014
lhumerus -45.8802 8.78196 70.7651
lradius 43.8806
lwrist -11.0827
lhand -25.0013 31.7081
lfingers 7.12502
lthumb 1.51028 61.6826
rfemur -18.5292 1.97684 34.0538
rtibia 51.3522
rfoot -26.3284 -13.1314
rtoes -22.5776
lfemur -41.1996 2.60782 -25.2945
ltibia 46.4086
lfoot 701.146 -3.68812
ltoes -31.4405
215
root -7.90776 14.79 1.65063 315.52 -97.6495 -307.841
lowerback 16.8336 0.849022 4.6354
upperback -8.06359 2.61925 2.50079
thorax -18.9696 0.752257 -0.510453
lowerneck -15.6317 0.171407 0.344959
upperneck 34.9534 0.340385 -3.80058
head 14.7114 -0.770424 -1.68868
rclavicle -1.92448e-014 -6.87795e-014
rhumerus -52.7666 27.7615 -94.7303
rradius 51.6917
rwrist -13.7302
rhand -25.8624 -24.0129
rfingers 7.12502
rthumb 0.678617 -53.9916
lclavicle -1.92448e-014 -6.87795e-014
lhumerus -43.874 7.60901 72.1459
lradius 44.1049
lwrist -10.8285
lhand -25.8212 31.4216
lfingers 7.12502
lthumb 0.718416 61.4002
rfemur -18.513 1.06 33.6414
rtibia 52.7635
rfoot -22.6328 -14.3857
rtoes -23.3936
lfemur -39.1115 2.69572 -25.7926
ltibia 45.4414
lfoot 699.427 -5.91717
ltoes -28.8139
216
root -8.13574 14.8408 1.67485 315.164 -97.2187 -307.878
lowerback 16.3532 0.820971 4.28864
upperback -8.20135 2.45376 2.44962
thorax -18.8437 0.718861 -0.312195
lowerneck -15.2558 0.191335 0.380813
upperneck 35.0143 0.347178 -3.83278
head 14.6534 -0.774577 -1.70691
rclavicle -1.963e-015 -4.57205e-015
rhumerus -53.7655 28.5302 -94.4329
rradius 52.2711
rwrist -13.1405
rhand -25.558 -23.0987
rfingers 7.12502
rthumb 0.972682 -53.0762
lclavicle -1.963e-015 -4.57205e-015
lhumerus -42.092 6.33602 73.3158
lradius 44.677
lwrist -11.4593
lhand -26.6463 30.6336
lfingers 7.12502
lthumb -0.0785149 60.6133
rfemur -18.5172 0.172125 33.0407
rtibia 53.991
rfoot -19.1505 -15.3445
rtoes -20.5045
lfemur -36.7279 2.77705 -26.3239
ltibia 44.0513
lfoot 697.952 -7.8432
ltoes -26.314
217
root -8.36496 14.9071 1.70203 315.907 -96.7561 -309.089
lowerback 15.9356 0.825496 3.8317
upperback -8.31156 2.31294 2.39087
thorax -18.724 0.709495 -0.0716537
lowerneck -14.9068 0.214775 0.413265
upperneck 35.0323 0.332249 -3.77166
head 14.5805 -0.772988 -1.6879
rclavicle 6.4605e-015 -1.15295e-014
rhumerus -54.5741 28.8755 -93.5317
rradius 52.4084
rwrist -12.9711
rhand -25.477 -22.3787
rfingers 7.12502
rthumb 1.05085 -52.3559
lclavicle 6.4605e-015 -1.15295e-014
lhumerus -40.5758 5.041 74.2944
lradius 45.6358
lwrist -12.5406
lhand -27.2695 29.5506
lfingers 7.12502
lthumb -0.68041 59.5292
rfemur -18.5738 -0.701974 32.239
rtibia 55.1791
rfoot -15.6398 -16.5284
rtoes -15.5416
lfemur -34.1866 2.63783 -26.9088
ltibia 42.5166
lfoot 696.81 -9.44702
ltoes -24.0231
218
root -8.59619 14.9888 1.73218 317.61 -96.2418 -311.312
lowerback 15.5591 0.842546 3.29777
upperback -8.38899 2.17585 2.32027
thorax -18.5893 0.710774 0.194882
lowerneck -14.6304 0.239352 0.417469
upperneck 35.0497 0.287733 -3.58441
head 14.5228 -0.768911 -1.61711
rclavicle -2.07481e-014 -1.66979e-014
rhumerus -55.1526 28.7982 -92.0873
rradius 52.1426
rwrist -13.1499
rhand -25.4866 -21.7573
rfingers 7.12502
rthumb 1.04161 -51.7345
lclavicle -2.07481e-014 -1.66979e-014
lhumerus -39.3224 3.79237 75.1051
lradius 46.9659
lwrist -13.5604
lhand -27.9125 28.3821
lfingers 7.12502
lthumb -1.30139 58.3579
rfemur -18.7616 -1.58519 31.2617
rtibia 56.4473
rfoot -12.2529 -18.0417
rtoes -8.92389
lfemur -31.5168 2.21056 -27.5765
ltibia 40.8368
lfoot 695.23 -8.57125
ltoes -27.3803
